<svg width="15" height="15" viewBox="0 0 15 15" fill="none" xmlns="http://www.w3.org/2000/svg">
<path d="M4.6875 11.25C5.20527 11.25 5.625 11.6697 5.625 12.1875C5.625 12.7053 5.20527 13.125 4.6875 13.125C4.16973 13.125 3.75 12.7053 3.75 12.1875C3.75 11.6697 4.16973 11.25 4.6875 11.25Z" stroke="white"/>
<path d="M10.3125 11.2501C10.8303 11.2501 11.25 11.6697 11.25 12.1876C11.25 12.7053 10.8303 13.1251 10.3125 13.1251C9.79475 13.1251 9.375 12.7053 9.375 12.1876C9.375 11.6697 9.79475 11.2501 10.3125 11.2501Z" stroke="white"/>
<path d="M1.40536 1.43279C1.16113 1.34692 0.893532 1.4753 0.807669 1.71953C0.721801 1.96376 0.850182 2.23135 1.09441 2.31722L1.40536 1.43279ZM12.911 6.17672L13.3701 6.27138L13.3707 6.2685L12.911 6.17672ZM3.56743 6.1V4.39898H2.62993V6.1H3.56743ZM1.56861 1.49019L1.40536 1.43279L1.09441 2.31722L1.25766 2.37462L1.56861 1.49019ZM6.83582 10.1563H10.1501V9.21875H6.83582V10.1563ZM3.56743 4.39898C3.56743 3.957 3.56807 3.58819 3.53563 3.28849C3.50204 2.97825 3.42929 2.6953 3.25305 2.4374L2.47901 2.96634C2.53543 3.04889 2.57899 3.16228 2.60357 3.38937C2.62929 3.627 2.62993 3.93651 2.62993 4.39898H3.56743ZM1.25766 2.37462C1.67492 2.52132 1.94914 2.61854 2.15092 2.71754C2.34043 2.81053 2.42398 2.8858 2.47901 2.96634L3.25305 2.4374C3.07544 2.17749 2.83928 2.01102 2.56389 1.8759C2.30075 1.74679 1.96485 1.6295 1.56861 1.49019L1.25766 2.37462ZM2.62993 6.1C2.62993 7.00782 2.63845 7.66244 2.72411 8.16257C2.81556 8.6965 2.99814 9.07882 3.33954 9.43888L4.01987 8.79388C3.81977 8.58282 3.71184 8.37613 3.64815 8.00432C3.57868 7.59863 3.56743 7.03063 3.56743 6.1H2.62993ZM6.83582 9.21875C5.95031 9.21875 5.3359 9.21763 4.87298 9.152C4.42623 9.08863 4.19021 8.9735 4.01987 8.79388L3.33954 9.43888C3.7107 9.83038 4.18121 10.0008 4.74136 10.0802C5.28534 10.1574 5.97823 10.1563 6.83582 10.1563V9.21875ZM3.09868 4.29375H10.6804V3.35625H3.09868V4.29375ZM12.4519 6.0821L12.1396 7.59757L13.0578 7.78682L13.3701 6.27138L12.4519 6.0821ZM10.6804 4.29375C11.2156 4.29375 11.6867 4.29438 12.0584 4.33594C12.2432 4.35659 12.3814 4.38527 12.4786 4.41941C12.5794 4.45485 12.5955 4.48205 12.5874 4.4715L13.3305 3.89987C13.1836 3.70898 12.9771 3.60091 12.7894 3.53492C12.5978 3.46762 12.3812 3.42867 12.1626 3.40424C11.7278 3.35563 11.1983 3.35625 10.6804 3.35625V4.29375ZM13.3707 6.2685C13.4764 5.73855 13.5663 5.2939 13.5883 4.93774C13.6108 4.57137 13.5691 4.21011 13.3305 3.89987L12.5874 4.4715C12.6262 4.52193 12.669 4.61274 12.6525 4.87999C12.6354 5.15745 12.5625 5.52799 12.4513 6.08497L13.3707 6.2685ZM10.1501 10.1563C10.6262 10.1563 11.0257 10.1571 11.3478 10.1176C11.6826 10.0767 11.9879 9.98713 12.2545 9.76988L11.6623 9.04313C11.584 9.10688 11.4731 9.15782 11.2339 9.18713C10.9819 9.21794 10.6497 9.21875 10.1501 9.21875V10.1563ZM12.1396 7.59757C12.0387 8.08682 11.9708 8.41207 11.8898 8.65263C11.8128 8.88094 11.7405 8.97938 11.6623 9.04313L12.2545 9.76988C12.5211 9.55263 12.6704 9.27163 12.7782 8.952C12.8818 8.6445 12.9616 8.25307 13.0578 7.78682L12.1396 7.59757Z" fill="white"/>
</svg>
