<svg width="30" height="30" viewBox="0 0 30 30" fill="none" xmlns="http://www.w3.org/2000/svg">
<path d="M26.8326 3.42532C23.0727 4.98232 6.95159 11.66 2.49719 13.4801C-0.49021 14.6459 1.25849 15.7388 1.25849 15.7388C1.25849 15.7388 3.80849 16.613 5.99429 17.2688C8.18009 17.9246 9.34589 17.1959 9.34589 17.1959L19.6191 10.274C23.262 7.79692 22.3878 9.83692 21.5136 10.7111C19.6191 12.6056 16.4862 15.5927 13.8633 17.9972C12.6975 19.0172 13.2804 19.8917 13.7904 20.3288C15.6849 21.9317 20.8578 25.2104 21.1494 25.4291C22.6887 26.5187 25.7163 28.0874 26.1768 24.7733L27.9984 13.3343C28.5813 9.47272 29.1642 5.90242 29.2371 4.88242C29.4555 2.40532 26.8326 3.42532 26.8326 3.42532Z" fill="white"/>
</svg>
