<svg width="41" height="41" viewBox="0 0 41 41" fill="none" xmlns="http://www.w3.org/2000/svg">
<circle cx="20.5" cy="20.5" r="20.1204" stroke="#4D4D4D" stroke-width="0.759259"/>
<path d="M15.9 28.1302V26.0062L21.336 21.1822C21.744 20.8222 22.032 20.4832 22.2 20.1652C22.368 19.8472 22.452 19.5502 22.452 19.2742C22.452 18.8782 22.371 18.5272 22.209 18.2212C22.047 17.9092 21.819 17.6662 21.525 17.4922C21.231 17.3122 20.886 17.2222 20.49 17.2222C20.076 17.2222 19.71 17.3182 19.392 17.5102C19.08 17.6962 18.837 17.9452 18.663 18.2572C18.489 18.5632 18.408 18.8962 18.42 19.2562H15.9C15.9 18.3682 16.095 17.6002 16.485 16.9522C16.875 16.3042 17.418 15.8032 18.114 15.4492C18.81 15.0952 19.62 14.9182 20.544 14.9182C21.39 14.9182 22.146 15.1042 22.812 15.4762C23.484 15.8422 24.012 16.3552 24.396 17.0152C24.78 17.6752 24.972 18.4402 24.972 19.3102C24.972 19.9522 24.882 20.4862 24.702 20.9122C24.522 21.3322 24.255 21.7222 23.901 22.0822C23.547 22.4362 23.112 22.8382 22.596 23.2882L19.086 26.3662L18.888 25.8262H24.972V28.1302H15.9Z" fill="#4D4D4D"/>
</svg>
