<svg width="30" height="31" viewBox="0 0 30 31" fill="none" xmlns="http://www.w3.org/2000/svg">
<g clip-path="url(#clip0_396_932)">
<path d="M5.90125 16.6011C5.135 18.1074 6.005 18.8274 7.99 20.0574C9.6775 21.0999 12.0088 21.4811 13.5063 21.6336C12.8925 22.2236 15.705 19.5186 7.605 27.3099C5.8875 28.9561 8.6525 31.5974 10.3688 29.9861L15.015 25.5049C16.7938 27.2161 18.4988 28.8561 19.6613 29.9924C21.3788 31.6099 24.1425 28.9911 22.4438 27.3161C22.3163 27.1949 16.1475 21.2774 16.5238 21.6399C18.04 21.4874 20.3363 21.0836 22.0038 20.0636L22.0025 20.0624C23.9875 18.8261 24.8575 18.1074 24.1025 16.6011C23.6463 15.7461 22.4162 15.0311 20.7787 16.2674C20.7787 16.2674 18.5675 17.9611 15.0013 17.9611C11.4338 17.9611 9.22375 16.2674 9.22375 16.2674C7.5875 15.0249 6.3525 15.7461 5.90125 16.6011Z" fill="white"/>
<path d="M14.9988 15.6775C19.3463 15.6775 22.8963 12.28 22.8963 8.0975C22.8963 3.8975 19.3463 0.5 14.9988 0.5C10.65 0.5 7.10001 3.8975 7.10001 8.0975C7.10001 12.28 10.65 15.6775 14.9988 15.6775ZM14.9988 4.34875C17.135 4.34875 18.8775 6.025 18.8775 8.0975C18.8775 10.1525 17.135 11.8288 14.9988 11.8288C12.8625 11.8288 11.12 10.1525 11.12 8.0975C11.1188 6.02375 12.8613 4.34875 14.9988 4.34875Z" fill="white"/>
</g>
<defs>
<clipPath id="clip0_396_932">
<rect width="30" height="30" fill="white" transform="translate(0 0.5)"/>
</clipPath>
</defs>
</svg>
