<svg width="30" height="30" viewBox="0 0 30 30" fill="none" xmlns="http://www.w3.org/2000/svg">
<g clip-path="url(#clip0_396_935)">
<path d="M15.1094 0C7.03206 0 0.460678 6.57139 0.460678 14.6486C0.460678 17.4077 1.22603 20.0777 2.67883 22.4015L0.300248 28.7577C0.173946 29.0954 0.256369 29.4757 0.511273 29.7306C0.686973 29.9062 0.922099 30 1.16192 30C1.2701 30 1.3792 29.981 1.48416 29.9416L8.04874 27.4851C10.2034 28.6719 12.6348 29.2973 15.1093 29.2973C23.1867 29.2973 29.758 22.7259 29.758 14.6486C29.7581 6.57139 23.1868 0 15.1094 0ZM22.1681 19.2487C21.759 20.7033 20.2298 21.7589 18.5322 21.7588C18.3661 21.7588 18.1984 21.7485 18.0363 21.7284C15.9728 21.4317 13.5579 20.016 11.5718 17.9365C9.48019 15.9389 8.06447 13.5243 7.78454 11.4775C7.50121 9.40587 8.42819 7.86099 10.2639 7.34474C10.3582 7.31825 10.4579 7.30482 10.5603 7.30482C11.6357 7.30482 12.9167 8.82449 13.3616 9.91393C13.6514 10.6234 13.6294 11.1701 13.2981 11.4949C12.4669 12.3095 12.1571 12.8048 12.1929 13.2615C12.233 13.7705 12.7067 14.3586 13.5116 15.2023C13.6142 15.3101 13.7516 15.4536 13.906 15.6087C14.0502 15.7522 14.1883 15.8846 14.3105 16.0014C15.2089 16.8582 15.7957 17.3226 16.3228 17.3226C16.7611 17.3225 17.2363 17.0119 18.0177 16.2146C18.1361 16.0939 18.3544 15.9501 18.7221 15.9501C19.6919 15.9501 21.0604 16.8965 21.7302 17.7804C22.1362 18.316 22.2875 18.8238 22.1681 19.2487Z" fill="white"/>
</g>
<defs>
<clipPath id="clip0_396_935">
<rect width="30" height="30" fill="white"/>
</clipPath>
</defs>
</svg>
