<svg width="200" height="73" viewBox="0 0 200 73" fill="none" xmlns="http://www.w3.org/2000/svg">
<path d="M55.391 55.5933H54.4735C39.9392 55.5933 38.4711 49.9143 38.4711 46.2871V46.0672H49.1149C49.225 47.0931 49.6287 49.2915 54.7304 49.2915H54.9506C59.9055 49.2915 60.6028 47.9725 60.6028 46.8C60.6028 45.5177 59.8688 44.6017 55.4277 44.4918L51.6107 44.3819C41.4807 44.1987 38.8381 40.4249 38.8381 36.0648V35.7717C38.8381 31.082 41.8477 27.528 53.7394 27.528H55.3176C68.4205 27.528 70.5126 32.0712 70.5126 36.0648V36.248H60.0523C59.8688 35.1855 59.1714 33.6467 54.6203 33.6467H54.3267C49.9223 33.6467 49.0782 34.4894 49.0782 35.6985C49.0782 36.8343 49.8489 37.7136 53.9596 37.8235L57.8868 37.8968C68.5306 38.1899 70.953 41.2676 70.953 46.1039V46.5435C70.953 50.9402 68.8609 55.5933 55.391 55.5933Z" fill="#826BDD"/>
<path d="M83.128 31.6281V36.2961H75.1692V31.6281H83.128ZM83.128 37.9037V55.1537H75.1692V37.9037H83.128Z" fill="#826BDD"/>
<path d="M95.6482 31.7518V55.1537H87.6895V31.7518H95.6482Z" fill="#826BDD"/>
<path d="M109.531 51.1967C112.349 51.1967 113.464 49.4655 113.464 48.1053V47.2706C112.876 47.3943 111.668 47.6107 110.336 47.8271C107.766 48.2289 107.147 48.6617 107.147 49.651V49.7128C107.147 50.6093 107.921 51.1967 109.531 51.1967ZM113.681 52.9897C113.123 53.6389 111.203 55.5246 106.961 55.5246H106.434C101.603 55.5246 99.2807 53.1752 99.2807 49.9601V49.8055C99.2807 46.5905 101.263 44.952 107.363 44.5502L112.256 44.2719C113.154 44.1792 113.464 43.901 113.464 43.2827V43.2518C113.464 42.5098 113.092 41.8606 110.584 41.8606H110.46C107.766 41.8606 107.549 43.0354 107.549 43.4682H99.7142V43.4373C99.7142 41.1187 100.674 37.4709 109.934 37.4709H110.987C120.432 37.4709 121.268 40.7787 121.268 43.4682V48.7854C121.268 49.4037 121.454 49.6819 122.104 49.6819H123.064V55.1537H116.623C114.889 55.1537 113.99 53.948 113.681 52.9897Z" fill="#826BDD"/>
<path d="M148.858 37.9037V55.1537H140.961V52.4642C140.063 53.5461 137.771 55.6174 133.683 55.6174H133.374C128.233 55.6174 126.065 52.3714 126.065 49.0327V37.9037H134.055V46.5287C134.055 48.2598 134.922 49.7746 137.4 49.7746C139.753 49.7746 140.899 48.2598 140.899 46.2504V37.9037H148.858Z" fill="#826BDD"/>
<path d="M161.364 55.1537H153.406V37.9037H161.302V40.7168C161.891 39.7894 163.563 37.5018 167.403 37.5018H167.651C172.42 37.5018 173.783 40.8714 173.783 44.4574C173.783 45.6012 173.721 46.3123 173.69 46.9615H165.762V46.1268C165.762 44.241 165.204 43.2827 163.687 43.2827C162.139 43.2827 161.364 44.2719 161.364 46.2504V55.1537Z" fill="#826BDD"/>
<path d="M186.467 51.1967C189.285 51.1967 190.4 49.4655 190.4 48.1053V47.2706C189.812 47.3943 188.604 47.6107 187.272 47.8271C184.702 48.2289 184.082 48.6617 184.082 49.651V49.7128C184.082 50.6093 184.857 51.1967 186.467 51.1967ZM190.617 52.9897C190.059 53.6389 188.139 55.5246 183.897 55.5246H183.37C178.539 55.5246 176.217 53.1752 176.217 49.9601V49.8055C176.217 46.5905 178.199 44.952 184.299 44.5502L189.192 44.2719C190.09 44.1792 190.4 43.901 190.4 43.2827V43.2518C190.4 42.5098 190.028 41.8606 187.52 41.8606H187.396C184.702 41.8606 184.485 43.0354 184.485 43.4682H176.65V43.4373C176.65 41.1187 177.61 37.4709 186.87 37.4709H187.923C197.368 37.4709 198.204 40.7787 198.204 43.4682V48.7854C198.204 49.4037 198.39 49.6819 199.04 49.6819H200V55.1537H193.559C191.824 55.1537 190.926 53.948 190.617 52.9897Z" fill="#826BDD"/>
<path d="M22.3837 28.992C21.364 28.5233 20.2117 28.2936 19.0129 28.3822C15.2445 28.6608 12.4174 31.9333 12.6965 35.6952C12.9757 39.457 16.2562 42.2802 20.0234 42.0016C20.48 41.9678 20.9242 41.8887 21.3463 41.7717C23.5678 41.1718 26.3797 46.5027 25.9016 47.4659C25.4513 48.3615 25.2311 49.3869 25.3107 50.459C25.354 51.0428 25.4549 51.6098 25.6858 52.1165C27.0449 55.1032 23.7905 57.844 21.1031 57.6352C18.6079 57.4405 16.7313 59.9914 16.9163 62.4847C17.1013 64.978 19.2754 66.849 21.7731 66.6643C24.2707 66.4796 26.1461 64.3092 25.9611 61.8159C25.7935 59.5572 24.4952 56.2466 30.0058 55.6913C30.4884 55.6421 30.9768 55.8092 31.4818 55.7718C34.6553 55.5372 37.0376 52.7773 36.8025 49.6093C36.5675 46.4413 33.803 44.0654 30.6306 44.3C30.4675 44.312 30.3063 44.333 30.1497 44.3559C28.8586 44.5574 24.8773 40.4417 25.9452 37.5375C26.2686 36.6546 26.4128 35.6867 26.3385 34.6854C26.2989 34.1521 26.1983 33.6347 26.0468 33.147C25.721 32.0784 32.366 25.2017 35.4663 27.0122C36.8899 27.8359 38.5721 28.2578 40.3365 28.1274C45.0001 27.7837 48.501 23.7311 48.1556 19.0768C47.8103 14.4225 43.7495 10.9278 39.0882 11.2725C34.4269 11.6171 30.9252 15.6732 31.2704 20.3252C31.3061 20.8068 31.3829 21.2775 31.4932 21.7287C32.2417 24.8362 23.16 29.3511 22.3848 28.9919" fill="#826BDD"/>
<path fill-rule="evenodd" clip-rule="evenodd" d="M30.2216 68.6888C29.0307 68.7769 28.1363 69.8126 28.2245 71.0015C28.3127 72.1903 29.3502 73.0821 30.5411 72.994C31.732 72.906 32.6253 71.8703 32.5372 70.6826C32.4491 69.4949 31.4114 68.6009 30.2216 68.6888Z" fill="#826BDD"/>
<path fill-rule="evenodd" clip-rule="evenodd" d="M11.2553 49.6606C9.70229 49.7755 8.53607 51.1259 8.65094 52.674C8.7658 54.222 10.1188 55.3885 11.6718 55.2736C13.2248 55.1588 14.3888 53.8085 14.2737 52.2582C14.1587 50.7079 12.8072 49.5459 11.2553 49.6606Z" fill="#826BDD"/>
<path fill-rule="evenodd" clip-rule="evenodd" d="M34.8841 0.00903777C33.0893 0.141742 31.7408 1.70319 31.8739 3.49598C32.0069 5.28877 33.571 6.63486 35.3658 6.50216C37.1606 6.36945 38.5102 4.80793 38.3772 3.01513C38.2442 1.22234 36.68 -0.123749 34.8841 0.00903777Z" fill="#826BDD"/>
<path fill-rule="evenodd" clip-rule="evenodd" d="M3.58542 36.7199C1.45325 36.8775 -0.147172 38.7308 0.0107515 40.8592C0.168675 42.9877 2.02514 44.5853 4.1573 44.4276C6.28947 44.27 7.88989 42.4168 7.73197 40.2883C7.57404 38.1599 5.71758 36.5622 3.58542 36.7199Z" fill="#826BDD"/>
<path fill-rule="evenodd" clip-rule="evenodd" d="M17.1747 4.55233C13.1421 4.8505 10.112 8.35922 10.4107 12.3849C10.7094 16.4105 14.2229 19.4332 18.2567 19.1349C22.2905 18.8367 25.3174 15.3304 25.0187 11.3048C24.72 7.27913 21.2074 4.25416 17.1747 4.55233Z" fill="#826BDD"/>
<path fill-rule="evenodd" clip-rule="evenodd" d="M5.14682 21.768C2.64805 21.9528 0.773858 24.1242 0.958851 26.6175C1.14384 29.1108 3.31806 30.983 5.81683 30.7982C8.3156 30.6135 10.1886 28.4409 10.0037 25.9488C9.81876 23.4566 7.64447 21.5833 5.14682 21.768Z" fill="#826BDD"/>
</svg>
